<svg xmlns="http://www.w3.org/2000/svg" width="256" height="256" viewBox="0 0 256 256"><path d="M132.3 150.9c-.2 0-.4.2-.4.6h-.1c-.3 0-.4.2-.4.5s.1.6.4.6.4-.2.4-.6h.1c.4 0 .5-.1.5-.5s-.1-.6-.5-.6zm1.5-.8a3.6 3.6 0 0 0-.9.8h.3a2 2 0 0 0 1.1-.3 2.4 2.4 0 0 0 .9-.8h-.3a2 2 0 0 0-1.1.3zm3-2.5c-.3 0-.4.2-.4.5h-.1c-.3 0-.5.2-.5.6h-.1c-.3 0-.5.2-.5.6s.2.5.5.5.5-.1.5-.5h.1c.3 0 .4-.2.4-.6h.1c.3 0 .5-.2.5-.6a.5.5 0 0 0-.5-.5zm23-5.9a8.7 8.7 0 0 1-1.2 1.4 2 2 0 0 0 .8 1.1l1.1.2a2.4 2.4 0 0 0 1.4-.5 5.8 5.8 0 0 0 1-1.2 10.9 10.9 0 0 0 .8-1.5c.2-.5.4-1.1.5-1.1h-3.4c-.2 0-.5 1-1 1.6z"/><path d="M127.8 2a126 126 0 1 0 126 126 126 126 0 0 0-126-126zm94.5 74.7a3.7 3.7 0 0 1-1.5.4h-3.7l-5.2 1.2a20.4 20.4 0 0 0-3.6 1.6 7.3 7.3 0 0 0-2.4 2.2 10.2 10.2 0 0 0-1.8 2.9c-.5 1.1-1 2.4-1.5 3.8s-1 3.1-1.6 5-.8 2.4-1.2 3.4l-1.2 3.2c-.5 1-.9 2-1.5 3.1l-1.7 3.2a23.3 23.3 0 0 1-2.7 4c-.9 1.3-1.9 2.5-2.9 3.7l-3.1 3.5-3 3.8a8.7 8.7 0 0 0-1.4 2.7 26 26 0 0 1-1 2.5 7.1 7.1 0 0 1-1.3 2.2 6 6 0 0 1-2.5 1.6l-1.3.5-2 .7-2 .6-1.4.4a3 3 0 0 1 .2 2 2 2 0 0 1-.9.9l-1.2.6a1.4 1.4 0 0 0-.8 1l-2.3 6.6a2.5 2.5 0 0 1-1 1.5 5.1 5.1 0 0 1-1.8.9 12.3 12.3 0 0 1-2 .2l-1.8-.2h-.8c-.5 0-.9.2-1.2.1a1.1 1.1 0 0 1-.4-.9c0-.1.1-.2.1-.3l.3-.3.2-.3c.1-.1.1-.2.1-.4v-.2a21.6 21.6 0 0 0-3.4 1.7l-3.4 2-3.3 2.2-3.3 1.9-.9.5-1.1.5-1 .8a1.4 1.4 0 0 0-.4 1v.6l1.8 1.6 1.9 1.7 2 1.6 2.1 1.3a12.7 12.7 0 0 0 1.8.6l1.9.6a6 6 0 0 1 1.9.6 5.6 5.6 0 0 1 1.7.9 8.6 8.6 0 0 1 1.3 1.4l1.1 1.5a17.1 17.1 0 0 0 1.1 1.4 6.4 6.4 0 0 0 1.5 1.3l1.7.6 2 .6a7.7 7.7 0 0 1 1.8 1 2.2 2.2 0 0 1 .7 1.7v.3a.3.3 0 0 0-.1.2l-5.5 1.2-1.1.4-1.2.2h-.5l-1.2-.7-1.7-1-1.7-1-1-.7-.2-.2-.3-.5-.3-.6-.3-.4-2.2-4.5-1.2-.4-1.8-.8-2.1-.9-2.1-.9-1.8-.8-1.1-.6-2.7-1.6a13.3 13.3 0 0 1-2.6-2.1 10.5 10.5 0 0 1-2-2.7 8.9 8.9 0 0 1-1.1-3.1l-.5.2-.6.4-.9.6-1.7 1.2-2.1 1.4-2.1 1.3-1.7 1.1-.9.5-6 3.5a26.5 26.5 0 0 0-4.5 3.4 17.3 17.3 0 0 0-3.6 4.4c-.8 1.7-.7 3.9-2.3 6.6v1.5a10.1 10.1 0 0 0 1.1 4.4 8 8 0 0 0 2.1 2.6 9.4 9.4 0 0 0 2.6 1.4l2.6.9a8.5 8.5 0 0 1 1.9 1 5.3 5.3 0 0 1 .8 2h-13.2l-.2-.4c-.1-.2-.2-.1-.3-.2h-.5l-.6-.4a2.8 2.8 0 0 1-1.3-1.5 7.1 7.1 0 0 1-.4-2.1 8.6 8.6 0 0 1 .2-2.3c0-.8.2-1.5.2-2.1v-1.4a8.2 8.2 0 0 1 .3-1.8c.2-.8.3-1.6.6-2.6s.5-2.1.7-3.2.6-2.1.8-3.1.5-1.9.7-2.6l.4-1.8a11.8 11.8 0 0 1 .7-2 6.6 6.6 0 0 1 1-1.8 15.5 15.5 0 0 0 4.4-2.6 24.2 24.2 0 0 0 3.2-3.2c1-1.2 2-2.3 2.9-3.5a19.7 19.7 0 0 1 3.4-3 7.1 7.1 0 0 1 1.5-.7l2-.8 2.3-1a10.3 10.3 0 0 0 2.1-1.1 5.3 5.3 0 0 0 1.6-1.3 2.2 2.2 0 0 0 .6-1.5v-1.3a1.4 1.4 0 0 0-.6-1.2l-.8-.3-1.2-.6-1.1-.5-.8-.3a9.4 9.4 0 0 1-2-1.2c-.9-.6-1.7-1.3-2.7-1.9a25.6 25.6 0 0 0-2.5-1.6 2.8 2.8 0 0 0-1.7-.5h-7.8c-6 0-11.8-.1-17.5.1s-11.6.2-17.6.2c-4.3 0-8.6-.2-12.7-.4a121.8 121.8 0 0 1-12.3-1.3 98.3 98.3 0 0 1-11.9-2.9 83.9 83.9 0 0 1-11.7-5l-1.4-.8-1.6-1a7.4 7.4 0 0 1-1.3-1.2 3 3 0 0 1-.5-1.6 5.9 5.9 0 0 1 2.1.4l2.4.9 2.2 1 1.4.6 4.7 1.6a41.3 41.3 0 0 0 5 1.5l5.1 1 4.8.3h26.3l2.5-.4 3.4-.5 3.6-.6 3.4-.6 2.6-.6 6.8-1.3c2.5-.4 4.9-1 7.3-1.6s4.9-1.3 7.2-2.1a50.4 50.4 0 0 0 6.6-2.7l3.8-1.8 3.8-1.6 3.9-1.3a27.1 27.1 0 0 1 4.1-.9h2.8l1.8-.2 1-.2 1.9-.3 3.3-.7 4-.9 4-.9c1.3-.3 2.4-.9 3.3-1.1s1.6-.8 1.9-.8h6.5c2.7 0 5.3.5 7.8.7a68.3 68.3 0 0 0 7.8.6 9.8 9.8 0 0 0 5-1.3 18.3 18.3 0 0 0 4.5-3.5 23.7 23.7 0 0 0 3.8-4.9 63.2 63.2 0 0 0 3.3-5.6c.9-1.9 1.8-3.7 2.5-5.5l1.8-4.8c.4-1.2.7-2.3 1.1-3.4a22.6 22.6 0 0 1 1-3.1 10.3 10.3 0 0 1 1.2-2.6 5.5 5.5 0 0 1 1.7-2 7.6 7.6 0 0 1 2.6-1.6 12.7 12.7 0 0 1 3.8-.8h3c.8 1.7 1.8.9 3 1.3a22.1 22.1 0 0 1 3.5 1.6 14.9 14.9 0 0 1 3 1.8 2.6 2.6 0 0 1 1.2 2.1 2 2 0 0 1-.5 1.4 1.9 1.9 0 0 1-1.1.5z"/></svg>