<svg xmlns="http://www.w3.org/2000/svg"><symbol id="brachiosaurus" viewBox="0 0 256 256"><path d="M59.7 166.7a37.9 37.9 0 0 0-7.7.8v.2c0 .3.3.6.8.9a12 12 0 0 0 2 1.1l2.6.9 2.8.9 2.3.6 1.5.2h2.1l2.5-.4a9.9 9.9 0 0 0 2.4-.9 4.7 4.7 0 0 0 1.7-1.4 30.3 30.3 0 0 0-6.4-2.2 29.6 29.6 0 0 0-6.6-.7z"/><path d="M128 2a126 126 0 1 0 126 126A126 126 0 0 0 128 2zm82.2 69.5v.3a8.2 8.2 0 0 1-.1 1.4 15.2 15.2 0 0 0-.3 2.1 15.5 15.5 0 0 0-.4 2.1c-.1.6-.2 1.1-.2 1.3a7.6 7.6 0 0 0-.9 1.8 11.8 11.8 0 0 0-.7 2c-.2.6-.3 1.3-.5 1.9a16.7 16.7 0 0 1-.8 2 21.1 21.1 0 0 1-1.6 3 21.1 21.1 0 0 0-1.6 3l-19.8 27.5c-.1.3-.1.4-.2.5l-.3.3-.3.3-.4.5-1.6 2.2-2.1 2.9-2.1 3.2c-.8 1.1-1.4 2.2-2 3.2s-1 2.1-1.4 3a7.4 7.4 0 0 0-.5 2.3c0 .3-.2.5-.2.7s.2.4.2.7c-.2 0-.3.1-.3.4s.1.4.3.4v10.1a2.2 2.2 0 0 1-.3 1l-.3 1.1a6.7 6.7 0 0 0-.6 1.2c-.1.4-.5.8-.5 1.1v1.7a.3.3 0 0 1 0 .4c-.2.2-.2.5-.4.8l-.7.8-.5.4v.4c0 .1.7.2.8.4s.8.3.8.4v2.8a21.4 21.4 0 0 1-.6 3.5c-.2 1.2-.5 2.3-.7 3.5s-.5 2.3-.7 3.4a21.6 21.6 0 0 0-.3 3.5 44.3 44.3 0 0 0 .3 6.3 40.9 40.9 0 0 0 1 6.1 44.5 44.5 0 0 0 2.2 5.7 23.4 23.4 0 0 0 3.3 5.1l-1.2.9a8.5 8.5 0 0 1-1.7.6l-1.7.5h-1.9l-1-.3-1.2-.2-.9-.2-.8-.2-.7-.3-.6-.4a2 2 0 0 1-.4-.8 25.5 25.5 0 0 0 .2-4l-.3-4.2c-.2-1.4-.4-2.8-.5-4.2l-.6-4.1a3.9 3.9 0 0 0-.2-.6.8.8 0 0 0-.2-.6c.1-1.1.1-2.3.1-3.6s0-2.7-.1-4a25.7 25.7 0 0 0-.6-4 11 11 0 0 0-1.4-3.3 3 3 0 0 0-1.4 1.8 19.8 19.8 0 0 0-.8 2.6c-.2 1-.2 2-.4 2.9s-1 1.7-1 2.3v1.5a17.6 17.6 0 0 1 0 2.3v3.7c0 2.8-.2 5.6-.1 8.2a77.2 77.2 0 0 0 .6 8.2l.4.3.8.6a2.7 2.7 0 0 1 .8.7.9.9 0 0 1 .3.6c0 .2-.2.5-.8.8a7.5 7.5 0 0 1-1.8.8l-2 .9-1.3.4h-.1l-4.8-2.6c-.2-.1-.2-.4-.2-.5v-.5a29.9 29.9 0 0 1 0-3 14.2 14.2 0 0 0 .2-3c0-1.3-.2-2.5-.3-3.8l-.6-3.7-.6-3.7a23.4 23.4 0 0 1-.3-3.8c0-1.3.1-2.4.1-3.3a23.6 23.6 0 0 1 .4-2.8c.2-.9.3-1.8.5-2.8s.4-2 .7-3.1a2.8 2.8 0 0 0-.1-.8c0-.3-.1-.5-.1-.7l-1.9.3-1.8.5-1.9.6-1.9.5-1.3.2h-2.1l-1-.2h-7a45.2 45.2 0 0 0-5.3-.2H121a4.1 4.1 0 0 0-2.3.9v5.1c0 1.7-.1 3.4-.1 5.1l-.3 5c-.1 1.7-.2 3.5-.2 5.2v2.5a7.5 7.5 0 0 1 0 1.5v1c0 .6.7 1.1 1.2 1.7l1.3 1.7a8.8 8.8 0 0 1 1.2 1.7 3.2 3.2 0 0 1 .6 1.8c0 .1-.1.1-.1.2v.2a10.7 10.7 0 0 1-4 .4c.1.5 0 .7-.2.8h-2.7a9.1 9.1 0 0 1-2.3-.3 4.2 4.2 0 0 1-1.8-.8 2.1 2.1 0 0 1-.7-1.8 5.3 5.3 0 0 1 .1-1.3l.3-1.3a6.1 6.1 0 0 0 .3-1.3 5.9 5.9 0 0 0 .2-1.4 23.4 23.4 0 0 0-.3-3.8c-.2-1.2-.4-2.4-.7-3.5s-.5-2.7-.8-3.8a29.6 29.6 0 0 1-.7-4h-.4c-.2 0-.4.8-.5.9l-.4.7-.3.5a18.8 18.8 0 0 1-1.6 2.3 17.6 17.6 0 0 0-1.4 2.3 13.3 13.3 0 0 0-1.1 2.4 7.5 7.5 0 0 0-.4 2.6 4.1 4.1 0 0 0 .3 1.6 10.7 10.7 0 0 0 .7 1.5 6.2 6.2 0 0 0 .8 1.2l.3.6a.8.8 0 0 1-.4.7l-1 .4-1.3.3H98l-1.1-.4a2.2 2.2 0 0 1-.7-.9 10.3 10.3 0 0 1-.5-1.6 7.5 7.5 0 0 1-.5-1.6 4.1 4.1 0 0 1-.3-1.6 2.8 2.8 0 0 1 .4-1.5l.9-1.6 1.1-1.5a10.9 10.9 0 0 0 .8-1.5l2.4-5.8c.8-2 1.6-3.9 2.5-5.9l.4-.7.6-.7.4-.8a1.9 1.9 0 0 0 .2-.8c0-.3-.2-.6-.4-.6H103l-8.9 2.6a2.2 2.2 0 0 1-1.3.5l-1.8.4-1.6.6a1.1 1.1 0 0 0-.6 1.1 2.9 2.9 0 0 0 .2.9l.7.6.8.5.7.7-.4.4-1.2-.9-1.4-.8-1.5-.6-1.5-.2a17.3 17.3 0 0 0-3.8.5l-3.9 1.1-4.1 1.1a14.7 14.7 0 0 1-4.2.6l-3.4-.4L61 179q-2.7-.7-5.4-1.8a46.8 46.8 0 0 1-5-2.2 13 13 0 0 1-3.6-2.7 3.8 3.8 0 0 1-1.4-2.9 4.4 4.4 0 0 1 1.1-3.3 6.1 6.1 0 0 1 2.7-1.6 13.4 13.4 0 0 1 3.5-.1 31.1 31.1 0 0 1 3.3.3h3.9a3.1 3.1 0 0 1 1.3-.2h2.3l2.5.3 2 .3a5.9 5.9 0 0 1 1.9.5l1.8.9 1.8.7a6.4 6.4 0 0 0 2 .3 8.4 8.4 0 0 0 3.9-1 25.7 25.7 0 0 0 4.1-2.6l3.9-3 3.2-2.7 1.9-1.3 1.8-1.1a10.4 10.4 0 0 0 1.7-1.2 6.1 6.1 0 0 0 1.5-1.7 39.1 39.1 0 0 0 2.6-4.4 33.5 33.5 0 0 1 2.7-4.5 5.3 5.3 0 0 1 1.3-1.3 11.9 11.9 0 0 1 1.5-.9l1.6-.9 1.6-.9 3.6-2.6 3.4-2.9 3.3-3c1.1-1 2.3-1.9 3.5-2.8a17.2 17.2 0 0 1 3.7-2.2l3.9-1.9 2.5-1.2 2.4-1.3 2.6-1.2a11.1 11.1 0 0 1 2.6-.7l22.2-3.2a12.1 12.1 0 0 0 3.5-1.2 30.2 30.2 0 0 0 3.3-2.1 42 42 0 0 0 3.2-2.9c1-1 1.9-2.1 2.9-3.2l2.6-3.2 2.3-2.8 7.6-8.9.4-.2.5-.6.5-.5.3-.3 2-3.2.3-.2.3-.2.4-.2.2-.2.4-.4.4-.4 1.2-1.7a24.3 24.3 0 0 0 1.4-2 21.4 21.4 0 0 0 1.3-1.9l1-1.7a16.7 16.7 0 0 0 .8-2c.2-.7.5-1.4.7-2.1a14.3 14.3 0 0 1 .8-2.2c.2-.7 1-1.5 1-2.2v-6a5.3 5.3 0 0 0-1.1-3.1 12.8 12.8 0 0 0-2.6-2.6 15.9 15.9 0 0 0-3.4-1.8 10.4 10.4 0 0 0-3.1-.7 26.3 26.3 0 0 0-5.8.7 12.4 12.4 0 0 0-5.1 2.6l-1.4 1.4-1.6 2-1.8 2a15.3 15.3 0 0 1-1.8 1.8 10.2 10.2 0 0 1-1.8 1.3 3.1 3.1 0 0 1-1.8.5 1.3 1.3 0 0 1-1.1-.5 1.4 1.4 0 0 1-.5-1.1v-.4a2 2 0 0 0 .1-.5 1.9 1.9 0 0 1 .2-.7c0-.3.1-.6.1-.8a4.3 4.3 0 0 1 .1-.5 4.1 4.1 0 0 0-.3-1.6 5.9 5.9 0 0 0-.6-1.4l-.6-1.2a3.7 3.7 0 0 1-.2-1.2 1.3 1.3 0 0 0 .8-.2 1.8 1.8 0 0 0 .5-.7l.4-.7a1.2 1.2 0 0 1 .8-.6h2.8q.8 0 .9-.3a2.7 2.7 0 0 1 .8-.7h.3c.1 0 .2.2.3.3s.1.4.2.4.1-.3.4-.3l.6-.4 1.1-.6 1.3-.8 1.4-.8 1-.7a1.5 1.5 0 0 0 .6-.4l2.1-1.2 1.7-.6a6.5 6.5 0 0 1 2-.2h6.3a4.4 4.4 0 0 0 1.5.5 4 4 0 0 0 1.5.3l1.6.4 1.5.4a17.7 17.7 0 0 1 4.5 3A21.2 21.2 0 0 1 208 59a21.1 21.1 0 0 1 1.7 5 24.7 24.7 0 0 1 .5 5.4v2.3z"/></symbol><symbol id="velociraptor" viewBox="0 0 256 256"><path d="M129.7 2a126 126 0 1 0 126 126 126 126 0 0 0-126-126zm108.9 115h-7.3c-3 0-6-.1-9-.4l-9.1-1-9-.9a90.8 90.8 0 0 0-9.1-.5 125.4 125.4 0 0 0-16.1 1 76.3 76.3 0 0 0-15.7 3.7l-30.2 10.9a2.4 2.4 0 0 0-1.2 1.5 12.9 12.9 0 0 0-.8 2.8 28.6 28.6 0 0 0-.7 2.8 8.5 8.5 0 0 1-.6 1.9 3 3 0 0 0 1.4 1.3l2.4 1.2 2.9 1.2a13.8 13.8 0 0 1 2.7 1.4 12.4 12.4 0 0 1 2.1 1.8 4.1 4.1 0 0 1 .8 2.5 1.7 1.7 0 0 1-.5 1.2 3.6 3.6 0 0 1-1.2.8l-1.6.8a8 8 0 0 0-1.6.8 4 4 0 0 0-1.2 1 2.5 2.5 0 0 0-.5 1.5 3.7 3.7 0 0 0 .8 2.5 10 10 0 0 0 1.9 1.6l2.4 1.3a6.8 6.8 0 0 1 2.1 1.7 16.8 16.8 0 0 1 2 3.4 25 25 0 0 1 2 7.5c.2 1.3.1 2.6.3 3.9l1.3 1.3v7.1h.8l1.1.2.9.2.6.2a5.4 5.4 0 0 0 .1.8c0 .3-.1.6-.1 1a5.6 5.6 0 0 1-.4 1.2l-.6 1a1 1 0 0 1-.9.3h-5.1c-.2 0-.5-.6-1-.9l-1.5-.8-1.5-.8c-.6-.3-.9-.8-1.2-.8h-6.1a5.2 5.2 0 0 1 .6-3 4.9 4.9 0 0 1 1.7-1.5 6.5 6.5 0 0 1 2.1-.6l2.1-.4a3.8 3.8 0 0 0 1.6-.6 1.4 1.4 0 0 0 .6-1.3v-.8l-.9-1.7a13.4 13.4 0 0 0-1.2-2.4l-1.5-2.5a15.4 15.4 0 0 0-1.6-1.8l-1.3-.8-1.8-.9-1.7-1c-.6-.4-.9-.7-1-1.1s-.6-1.8-.9-2.9a23.9 23.9 0 0 0-1.1-3.2 7.8 7.8 0 0 0-1.7-2.6 3.9 3.9 0 0 0-2.9-1 19.5 19.5 0 0 0-5.9.8 23.2 23.2 0 0 0-5.7 2.2 27.6 27.6 0 0 0-5 3.4 20.7 20.7 0 0 0-3.8 4.6h-.7l-.2-.4c0-.2-.1-.4-.1-.6a1.4 1.4 0 0 1-.2-.6.4.4 0 0 0-.1-.3h-.3a1.6 1.6 0 0 0-1.1.5 4.4 4.4 0 0 0-.8 1.1l-.9 1.3a2.1 2.1 0 0 1-.8 1 5.2 5.2 0 0 1-.7-1.6v-1.6a9.2 9.2 0 0 1 .4-2.9c.2-.9.5-1.8.8-2.8a18.6 18.6 0 0 0 1-2.5 26.6 26.6 0 0 0 .3-2.8h-4.8c0-1.6.2-1.7.7-2.3a4.9 4.9 0 0 1 1.6-1.6 10.2 10.2 0 0 1 2.1-.9l2.1-.3 3 .2 2.9.5 2.8.5 2.9.2h2.3a2.7 2.7 0 0 0-1.7-1.4l-2.5-.4-2.6-.2c-.9-.1-1.6.1-2.2-.2l-3.9-2.2h-.3a10.7 10.7 0 0 0-3.1 0 15.6 15.6 0 0 1-3.1.2 7.3 7.3 0 0 1-3-.7l-2.6-1.4-2.6-1.3a5 5 0 0 0-2.9-.6v5.9h1.6l1-.3.9-.5.9-.7h.6v2.7l2-.7c0 .1.2.3.2.5a2 2 0 0 0 .1.5 5.6 5.6 0 0 1-1.3 3.9 30.9 30.9 0 0 1-3.2 2.9 21.3 21.3 0 0 0-4.6-1.3l-4.7-.7v-7.7l-1.8.5-2 1-1.9 1.2c-.4.4-.9.8-.9 1.2v6.8a9.3 9.3 0 0 0 2.9-.3l1.9-.5 1.2-.6a2.1 2.1 0 0 1 1.2-.3h.3a3.4 3.4 0 0 1 .3.8c.2.3.3.8.5 1.2l.4 1.3a3.4 3.4 0 0 1 .1.9 4.3 4.3 0 0 1-.4 1.9 5.2 5.2 0 0 1-1 1.8 4.8 4.8 0 0 1-1.6 1.3 3 3 0 0 1-1.8.6h-1l-3-.5-3.6-.7a13.3 13.3 0 0 1-3.2-1.2 2.6 2.6 0 0 1-1.4-2.1v-12.1l.9-.8 1.8-1.6 2.4-2.2a27.3 27.3 0 0 0 2.3-2.5 20.3 20.3 0 0 0 1.8-2.6 5.6 5.6 0 0 0 .8-2.6 3.7 3.7 0 0 0-1.2-2.7 9.5 9.5 0 0 0-2.8-2 13 13 0 0 0-3.2-1.4l-2.5-.9-1.3-9-.6-2.7a13.6 13.6 0 0 0-1.1-2.8 9.1 9.1 0 0 0-1.8-2.1 3.8 3.8 0 0 0-2.6-.8 12.8 12.8 0 0 0-3.6.4 13 13 0 0 0-3.2 1.5l-1.6 1-2.5 1.5-3 1.7-2.9 1.8c-1 .5-1.8 1.2-2.5 1.6s-1.3 1.1-1.7 1.1h-1l-1.7-.2-2-.4a3.1 3.1 0 0 1-1.4-.7c-.5-.3-.3-.8-.3-1.4v-1.8c0-.6-.3-1 0-1h1.6a.5.5 0 0 1 0-.4 2.2 2.2 0 0 1 .1-.8c.1-.3.1-.6.2-.9s0-.4 0-.5l-.8-.8-.9-.5c-.2-.2-.5-.4-.6-.6a2.3 2.3 0 0 1-.3-1.3 5.2 5.2 0 0 1 .2-1.1 7.5 7.5 0 0 1 .7-1.2c.3-.3.2-.6.6-.9l.8-.3v.8a3.5 3.5 0 0 0 .6 1.4 1.1 1.1 0 0 0 1.2.8 1.6 1.6 0 0 0 1-.5 5.2 5.2 0 0 0 1-1.1 16.6 16.6 0 0 0 .6-1.6c.2-.5.3.2.3-1.4H24.2c-.3 0-.5-.2-.9-.5l-1-.7a2.2 2.2 0 0 1-.9-.7 1.5 1.5 0 0 1-.4-1.1 4.5 4.5 0 0 1 1-3.1 6.8 6.8 0 0 1 2.6-1.8 17 17 0 0 1 3.2-1 15.8 15.8 0 0 0 2.8-.8l2.2-.9 3.3-1.6 3.3-1.5a8.4 8.4 0 0 1 2.2-1.1h13.5a7 7 0 0 1 3.8 1 10.7 10.7 0 0 1 3.1 2.5 20.4 20.4 0 0 1 2.5 3.3l2.3 3.2A19.9 19.9 0 0 0 69 105a4.2 4.2 0 0 0 2.5 1 1 1 0 0 0 .8-.4c.1-.3.4-.4.8-.4a4 4 0 0 1 1.5.3l1.5.7 1.5.7a4.5 4.5 0 0 0 1.6.3l4.1-.2 4-.5 4.1-.4a27.3 27.3 0 0 1 4.1-.3c2.5 0 4.9.2 7.2.4a40.8 40.8 0 0 1 7.2 1.6c1.6.6 3.3 1.2 5 2l5 2.1a53.4 53.4 0 0 0 5.2 1.8 25 25 0 0 0 5.4.7h2.6l12.7-2.6c4.3-.9 8.5-1.7 12.7-2.3s8.5-1.2 12.8-1.6 8.6-.5 13-.5h8.8c1.8.1 3.5.7 5 .9l36.1 7.2h11.6c-.8 0-1.9 1-3.1 1.4a27.5 27.5 0 0 1-4.1.1z"/></symbol><symbol id="micropachycephalosaurus" viewBox="0 0 256 256"><path d="M132.3 150.9c-.2 0-.4.2-.4.6h-.1c-.3 0-.4.2-.4.5s.1.6.4.6.4-.2.4-.6h.1c.4 0 .5-.1.5-.5s-.1-.6-.5-.6zm1.5-.8a3.6 3.6 0 0 0-.9.8h.3a2 2 0 0 0 1.1-.3 2.4 2.4 0 0 0 .9-.8h-.3a2 2 0 0 0-1.1.3zm3-2.5c-.3 0-.4.2-.4.5h-.1c-.3 0-.5.2-.5.6h-.1c-.3 0-.5.2-.5.6s.2.5.5.5.5-.1.5-.5h.1c.3 0 .4-.2.4-.6h.1c.3 0 .5-.2.5-.6a.5.5 0 0 0-.5-.5zm23-5.9a8.7 8.7 0 0 1-1.2 1.4 2 2 0 0 0 .8 1.1l1.1.2a2.4 2.4 0 0 0 1.4-.5 5.8 5.8 0 0 0 1-1.2 10.9 10.9 0 0 0 .8-1.5c.2-.5.4-1.1.5-1.1h-3.4c-.2 0-.5 1-1 1.6z"/><path d="M127.8 2a126 126 0 1 0 126 126 126 126 0 0 0-126-126zm94.5 74.7a3.7 3.7 0 0 1-1.5.4h-3.7l-5.2 1.2a20.4 20.4 0 0 0-3.6 1.6 7.3 7.3 0 0 0-2.4 2.2 10.2 10.2 0 0 0-1.8 2.9c-.5 1.1-1 2.4-1.5 3.8s-1 3.1-1.6 5-.8 2.4-1.2 3.4l-1.2 3.2c-.5 1-.9 2-1.5 3.1l-1.7 3.2a23.3 23.3 0 0 1-2.7 4c-.9 1.3-1.9 2.5-2.9 3.7l-3.1 3.5-3 3.8a8.7 8.7 0 0 0-1.4 2.7 26 26 0 0 1-1 2.5 7.1 7.1 0 0 1-1.3 2.2 6 6 0 0 1-2.5 1.6l-1.3.5-2 .7-2 .6-1.4.4a3 3 0 0 1 .2 2 2 2 0 0 1-.9.9l-1.2.6a1.4 1.4 0 0 0-.8 1l-2.3 6.6a2.5 2.5 0 0 1-1 1.5 5.1 5.1 0 0 1-1.8.9 12.3 12.3 0 0 1-2 .2l-1.8-.2h-.8c-.5 0-.9.2-1.2.1a1.1 1.1 0 0 1-.4-.9c0-.1.1-.2.1-.3l.3-.3.2-.3c.1-.1.1-.2.1-.4v-.2a21.6 21.6 0 0 0-3.4 1.7l-3.4 2-3.3 2.2-3.3 1.9-.9.5-1.1.5-1 .8a1.4 1.4 0 0 0-.4 1v.6l1.8 1.6 1.9 1.7 2 1.6 2.1 1.3a12.7 12.7 0 0 0 1.8.6l1.9.6a6 6 0 0 1 1.9.6 5.6 5.6 0 0 1 1.7.9 8.6 8.6 0 0 1 1.3 1.4l1.1 1.5a17.1 17.1 0 0 0 1.1 1.4 6.4 6.4 0 0 0 1.5 1.3l1.7.6 2 .6a7.7 7.7 0 0 1 1.8 1 2.2 2.2 0 0 1 .7 1.7v.3a.3.3 0 0 0-.1.2l-5.5 1.2-1.1.4-1.2.2h-.5l-1.2-.7-1.7-1-1.7-1-1-.7-.2-.2-.3-.5-.3-.6-.3-.4-2.2-4.5-1.2-.4-1.8-.8-2.1-.9-2.1-.9-1.8-.8-1.1-.6-2.7-1.6a13.3 13.3 0 0 1-2.6-2.1 10.5 10.5 0 0 1-2-2.7 8.9 8.9 0 0 1-1.1-3.1l-.5.2-.6.4-.9.6-1.7 1.2-2.1 1.4-2.1 1.3-1.7 1.1-.9.5-6 3.5a26.5 26.5 0 0 0-4.5 3.4 17.3 17.3 0 0 0-3.6 4.4c-.8 1.7-.7 3.9-2.3 6.6v1.5a10.1 10.1 0 0 0 1.1 4.4 8 8 0 0 0 2.1 2.6 9.4 9.4 0 0 0 2.6 1.4l2.6.9a8.5 8.5 0 0 1 1.9 1 5.3 5.3 0 0 1 .8 2h-13.2l-.2-.4c-.1-.2-.2-.1-.3-.2h-.5l-.6-.4a2.8 2.8 0 0 1-1.3-1.5 7.1 7.1 0 0 1-.4-2.1 8.6 8.6 0 0 1 .2-2.3c0-.8.2-1.5.2-2.1v-1.4a8.2 8.2 0 0 1 .3-1.8c.2-.8.3-1.6.6-2.6s.5-2.1.7-3.2.6-2.1.8-3.1.5-1.9.7-2.6l.4-1.8a11.8 11.8 0 0 1 .7-2 6.6 6.6 0 0 1 1-1.8 15.5 15.5 0 0 0 4.4-2.6 24.2 24.2 0 0 0 3.2-3.2c1-1.2 2-2.3 2.9-3.5a19.7 19.7 0 0 1 3.4-3 7.1 7.1 0 0 1 1.5-.7l2-.8 2.3-1a10.3 10.3 0 0 0 2.1-1.1 5.3 5.3 0 0 0 1.6-1.3 2.2 2.2 0 0 0 .6-1.5v-1.3a1.4 1.4 0 0 0-.6-1.2l-.8-.3-1.2-.6-1.1-.5-.8-.3a9.4 9.4 0 0 1-2-1.2c-.9-.6-1.7-1.3-2.7-1.9a25.6 25.6 0 0 0-2.5-1.6 2.8 2.8 0 0 0-1.7-.5h-7.8c-6 0-11.8-.1-17.5.1s-11.6.2-17.6.2c-4.3 0-8.6-.2-12.7-.4a121.8 121.8 0 0 1-12.3-1.3 98.3 98.3 0 0 1-11.9-2.9 83.9 83.9 0 0 1-11.7-5l-1.4-.8-1.6-1a7.4 7.4 0 0 1-1.3-1.2 3 3 0 0 1-.5-1.6 5.9 5.9 0 0 1 2.1.4l2.4.9 2.2 1 1.4.6 4.7 1.6a41.3 41.3 0 0 0 5 1.5l5.1 1 4.8.3h26.3l2.5-.4 3.4-.5 3.6-.6 3.4-.6 2.6-.6 6.8-1.3c2.5-.4 4.9-1 7.3-1.6s4.9-1.3 7.2-2.1a50.4 50.4 0 0 0 6.6-2.7l3.8-1.8 3.8-1.6 3.9-1.3a27.1 27.1 0 0 1 4.1-.9h2.8l1.8-.2 1-.2 1.9-.3 3.3-.7 4-.9 4-.9c1.3-.3 2.4-.9 3.3-1.1s1.6-.8 1.9-.8h6.5c2.7 0 5.3.5 7.8.7a68.3 68.3 0 0 0 7.8.6 9.8 9.8 0 0 0 5-1.3 18.3 18.3 0 0 0 4.5-3.5 23.7 23.7 0 0 0 3.8-4.9 63.2 63.2 0 0 0 3.3-5.6c.9-1.9 1.8-3.7 2.5-5.5l1.8-4.8c.4-1.2.7-2.3 1.1-3.4a22.6 22.6 0 0 1 1-3.1 10.3 10.3 0 0 1 1.2-2.6 5.5 5.5 0 0 1 1.7-2 7.6 7.6 0 0 1 2.6-1.6 12.7 12.7 0 0 1 3.8-.8h3c.8 1.7 1.8.9 3 1.3a22.1 22.1 0 0 1 3.5 1.6 14.9 14.9 0 0 1 3 1.8 2.6 2.6 0 0 1 1.2 2.1 2 2 0 0 1-.5 1.4 1.9 1.9 0 0 1-1.1.5z"/></symbol></svg>